# xmcd
#
# Track frame offsets: 
#        150
#        19267
#        36322
#        58566
#        78456
#        96490
#        111411
#        131436
#        150970
#        171160
#        186487
#
# Disc length: 2636 seconds
#
# Revision: 0
# Processed by: cddbd v1.5.2PL0 Copyright (c) Steve Scherf et al.
# Submitted via: ExactAudioCopyFreeDBPlugin 1.0
#
DISCID=920a4a0b
DTITLE=Nash, Jay - Things You Think You Need
DYEAR=2008
DGENRE=Alt. Rock
TTITLE0=Sweet Talking Liar
TTITLE1=Wayfarer
TTITLE2=Barcelona
TTITLE3=eep on Talking
TTITLE4=Over You
TTITLE5=Hard Lesson
TTITLE6=Easy
TTITLE7=All the  Same
TTITLE8=No Stars
TTITLE9=Forgive Me
TTITLE10=Awake Now
EXTD=
EXTT0=
EXTT1=
EXTT2=
EXTT3=
EXTT4=
EXTT5=
EXTT6=
EXTT7=
EXTT8=
EXTT9=
EXTT10=
PLAYORDER=
